<mxfile host="Electron" agent="Mozilla/5.0 (Windows NT 10.0; Win64; x64) AppleWebKit/537.36 (KHTML, like Gecko) draw.io/26.2.15 Chrome/134.0.6998.205 Electron/35.2.1 Safari/537.36" version="26.2.15">
<diagram name="Page-1" id="hCpbS34hNcPbNvVli-DL">
<mxGraphModel dx="3239" dy="1231" grid="1" gridSize="10" guides="1" tooltips="1" connect="1" arrows="1" fold="1" page="1" pageScale="1" pageWidth="850" pageHeight="1100" math="0" shadow="0">
<root>
<mxCell id="0" />
<mxCell id="1" parent="0" />
<mxCell id="dftj9NKV9Ri1o8yNs-0A-2" value="" style="rounded=1;whiteSpace=wrap;html=1;fontSize=15;" parent="1" vertex="1">
<mxGeometry x="1103" y="170" width="1527" height="688" as="geometry" />
</mxCell>
<mxCell id="0urHjBUWFSTuqGPctkFO-1" value="" style="rounded=1;whiteSpace=wrap;html=1;fontSize=15;" parent="1" vertex="1">
<mxGeometry x="-140" y="178" width="370" height="562" as="geometry" />
</mxCell>
<mxCell id="SvIgPlwQUDWTWXCzjuk7-1" value="" style="rounded=1;whiteSpace=wrap;html=1;fontSize=15;" parent="1" vertex="1">
<mxGeometry x="359" y="147" width="680" height="780" as="geometry" />
</mxCell>
<mxCell id="SegBclisTMHdR6WhwMs6-48" style="edgeStyle=orthogonalEdgeStyle;rounded=0;orthogonalLoop=1;jettySize=auto;html=1;entryX=0.5;entryY=0;entryDx=0;entryDy=0;fontSize=15;" parent="1" source="SvIgPlwQUDWTWXCzjuk7-3" target="SvIgPlwQUDWTWXCzjuk7-4" edge="1">
<mxGeometry relative="1" as="geometry" />
</mxCell>
<mxCell id="SegBclisTMHdR6WhwMs6-51" value="&lt;font style=&quot;font-size: 30px;&quot;&gt;&lt;b&gt;4&lt;/b&gt;&lt;/font&gt;" style="edgeLabel;html=1;align=center;verticalAlign=middle;resizable=0;points=[];fontSize=15;" parent="SegBclisTMHdR6WhwMs6-48" vertex="1" connectable="0">
<mxGeometry x="0.0495" y="6" relative="1" as="geometry">
<mxPoint as="offset" />
</mxGeometry>
</mxCell>
<mxCell id="SegBclisTMHdR6WhwMs6-50" style="edgeStyle=orthogonalEdgeStyle;rounded=0;orthogonalLoop=1;jettySize=auto;html=1;fontSize=15;" parent="1" source="SvIgPlwQUDWTWXCzjuk7-3" target="SegBclisTMHdR6WhwMs6-1" edge="1">
<mxGeometry relative="1" as="geometry" />
</mxCell>
<mxCell id="SegBclisTMHdR6WhwMs6-52" value="&lt;font style=&quot;font-size: 30px;&quot;&gt;&lt;b&gt;5&lt;/b&gt;&lt;/font&gt;" style="edgeLabel;html=1;align=center;verticalAlign=middle;resizable=0;points=[];fontSize=15;" parent="SegBclisTMHdR6WhwMs6-50" vertex="1" connectable="0">
<mxGeometry x="0.6222" y="3" relative="1" as="geometry">
<mxPoint as="offset" />
</mxGeometry>
</mxCell>
<mxCell id="SvIgPlwQUDWTWXCzjuk7-3" value="&lt;div&gt;&lt;b&gt;&lt;br&gt;&lt;/b&gt;&lt;/div&gt;&lt;b&gt;&lt;div&gt;&lt;b&gt;&lt;br&gt;&lt;/b&gt;&lt;/div&gt;&lt;div&gt;&lt;b&gt;&lt;br&gt;&lt;/b&gt;&lt;/div&gt;Synapse&amp;nbsp; Notebook&lt;br&gt;&lt;/b&gt;&lt;div&gt;Read files and convert to JSON&lt;br&gt;&lt;/div&gt;" style="rounded=1;whiteSpace=wrap;html=1;fontSize=15;" parent="1" vertex="1">
<mxGeometry x="559" y="376.5" width="280" height="160" as="geometry" />
</mxCell>
<mxCell id="SvIgPlwQUDWTWXCzjuk7-4" value="&lt;div&gt;&lt;b&gt;&lt;br&gt;&lt;/b&gt;&lt;/div&gt;&lt;b&gt;&lt;div&gt;&lt;b&gt;&lt;br&gt;&lt;/b&gt;&lt;/div&gt;Azure AI Document&lt;/b&gt;&lt;div&gt;&lt;b&gt;Intelligence&lt;/b&gt;&lt;/div&gt;" style="rounded=1;whiteSpace=wrap;html=1;fontSize=15;" parent="1" vertex="1">
<mxGeometry x="440" y="654" width="220" height="150" as="geometry" />
</mxCell>
<mxCell id="SegBclisTMHdR6WhwMs6-54" value="&lt;b&gt;&lt;font style=&quot;font-size: 30px;&quot;&gt;10&lt;/font&gt;&lt;/b&gt;" style="edgeStyle=orthogonalEdgeStyle;rounded=0;orthogonalLoop=1;jettySize=auto;html=1;entryX=0;entryY=0.5;entryDx=0;entryDy=0;fontSize=15;" parent="1" source="SvIgPlwQUDWTWXCzjuk7-5" target="SvIgPlwQUDWTWXCzjuk7-22" edge="1">
<mxGeometry relative="1" as="geometry" />
</mxCell>
<mxCell id="SvIgPlwQUDWTWXCzjuk7-5" value="&lt;div&gt;&lt;b&gt;&lt;br&gt;&lt;/b&gt;&lt;/div&gt;&lt;b&gt;&lt;div&gt;&lt;b&gt;&lt;br&gt;&lt;/b&gt;&lt;/div&gt;&lt;div&gt;&lt;b&gt;&lt;br&gt;&lt;/b&gt;&lt;/div&gt;Azure OpenAI&lt;/b&gt;&lt;div&gt;Service&lt;/div&gt;" style="rounded=1;whiteSpace=wrap;html=1;fontSize=15;" parent="1" vertex="1">
<mxGeometry x="1460" y="599.5" width="240" height="160" as="geometry" />
</mxCell>
<mxCell id="SegBclisTMHdR6WhwMs6-2" value="&lt;b&gt;&lt;font style=&quot;font-size: 30px;&quot;&gt;3&lt;/font&gt;&lt;/b&gt;" style="edgeStyle=orthogonalEdgeStyle;rounded=0;orthogonalLoop=1;jettySize=auto;html=1;entryX=0;entryY=0.5;entryDx=0;entryDy=0;fontSize=15;" parent="1" source="SvIgPlwQUDWTWXCzjuk7-10" target="SvIgPlwQUDWTWXCzjuk7-3" edge="1">
<mxGeometry relative="1" as="geometry" />
</mxCell>
<mxCell id="SvIgPlwQUDWTWXCzjuk7-10" value="&lt;div&gt;&lt;br&gt;&lt;/div&gt;&lt;div&gt;&lt;br&gt;&lt;/div&gt;&lt;div&gt;&lt;br&gt;&lt;/div&gt;&lt;div&gt;DIF Raw Data&lt;/div&gt;&lt;div&gt;(PDF/Doc)&lt;/div&gt;" style="rounded=1;whiteSpace=wrap;html=1;fontSize=15;" parent="1" vertex="1">
<mxGeometry x="-70" y="550" width="200" height="135" as="geometry" />
</mxCell>
<mxCell id="SvIgPlwQUDWTWXCzjuk7-21" value="&lt;div&gt;&lt;b&gt;&lt;br&gt;&lt;/b&gt;&lt;/div&gt;&lt;b&gt;&lt;div&gt;&lt;b&gt;&lt;br&gt;&lt;/b&gt;&lt;/div&gt;&lt;div&gt;&lt;b&gt;&lt;br&gt;&lt;/b&gt;&lt;/div&gt;&lt;div&gt;&lt;b style=&quot;background-color: transparent; color: light-dark(rgb(0, 0, 0), rgb(255, 255, 255));&quot;&gt;Nova AI&lt;/b&gt;&lt;/div&gt;&lt;/b&gt;&lt;div&gt;Chat interface for users&lt;/div&gt;" style="rounded=1;whiteSpace=wrap;html=1;fontSize=15;" parent="1" vertex="1">
<mxGeometry x="2190" y="406.5" width="245" height="130" as="geometry" />
</mxCell>
<mxCell id="SegBclisTMHdR6WhwMs6-56" value="&lt;font style=&quot;font-size: 30px;&quot;&gt;&lt;b&gt;11&lt;/b&gt;&lt;/font&gt;" style="edgeStyle=orthogonalEdgeStyle;rounded=0;orthogonalLoop=1;jettySize=auto;html=1;entryX=0.5;entryY=1;entryDx=0;entryDy=0;fontSize=15;" parent="1" source="SvIgPlwQUDWTWXCzjuk7-22" target="SvIgPlwQUDWTWXCzjuk7-21" edge="1">
<mxGeometry relative="1" as="geometry" />
</mxCell>
<mxCell id="SvIgPlwQUDWTWXCzjuk7-22" value="&lt;div&gt;&lt;b&gt;&lt;br&gt;&lt;/b&gt;&lt;/div&gt;&lt;b&gt;&lt;div&gt;&lt;b&gt;&lt;br&gt;&lt;/b&gt;&lt;/div&gt;&lt;div&gt;&lt;b&gt;&lt;br&gt;&lt;/b&gt;&lt;/div&gt;Azure AI Search&lt;/b&gt;&lt;div&gt;Stores extracted documents and embeddings&lt;/div&gt;" style="rounded=1;whiteSpace=wrap;html=1;fontSize=15;" parent="1" vertex="1">
<mxGeometry x="1863" y="604.5" width="260" height="150" as="geometry" />
</mxCell>
<mxCell id="SvIgPlwQUDWTWXCzjuk7-39" value="" style="rounded=1;whiteSpace=wrap;html=1;fontSize=15;" parent="1" vertex="1">
<mxGeometry x="-600" y="178" width="370" height="562" as="geometry" />
</mxCell>
<mxCell id="SvIgPlwQUDWTWXCzjuk7-46" value="&lt;font style=&quot;font-size: 30px;&quot;&gt;&lt;b style=&quot;&quot;&gt;2&lt;/b&gt;&lt;/font&gt;" style="edgeStyle=orthogonalEdgeStyle;rounded=0;orthogonalLoop=1;jettySize=auto;html=1;entryX=0;entryY=0.5;entryDx=0;entryDy=0;fontSize=15;" parent="1" source="SvIgPlwQUDWTWXCzjuk7-40" target="SvIgPlwQUDWTWXCzjuk7-10" edge="1">
<mxGeometry relative="1" as="geometry" />
</mxCell>
<mxCell id="SvIgPlwQUDWTWXCzjuk7-45" value="&lt;font style=&quot;font-size: 30px;&quot;&gt;&lt;b style=&quot;&quot;&gt;1&lt;/b&gt;&lt;/font&gt;" style="edgeStyle=orthogonalEdgeStyle;rounded=0;orthogonalLoop=1;jettySize=auto;html=1;fontSize=15;" parent="1" source="SvIgPlwQUDWTWXCzjuk7-41" target="SvIgPlwQUDWTWXCzjuk7-40" edge="1">
<mxGeometry x="-0.0033" relative="1" as="geometry">
<mxPoint as="offset" />
</mxGeometry>
</mxCell>
<mxCell id="SvIgPlwQUDWTWXCzjuk7-41" value="&lt;div&gt;&lt;b&gt;&lt;br&gt;&lt;/b&gt;&lt;/div&gt;&lt;b&gt;&lt;div&gt;&lt;b&gt;&lt;br&gt;&lt;/b&gt;&lt;/div&gt;&lt;div&gt;&lt;b&gt;&lt;br&gt;&lt;/b&gt;&lt;/div&gt;OpenText&lt;/b&gt;&lt;div&gt;Documentum&lt;/div&gt;" style="rounded=1;whiteSpace=wrap;html=1;fontSize=15;" parent="1" vertex="1">
<mxGeometry x="-510" y="225" width="190" height="125" as="geometry" />
</mxCell>
<mxCell id="SvIgPlwQUDWTWXCzjuk7-40" value="&lt;div&gt;&lt;b&gt;&lt;br&gt;&lt;/b&gt;&lt;/div&gt;&lt;b&gt;&lt;div&gt;&lt;b&gt;&lt;br&gt;&lt;/b&gt;&lt;/div&gt;&lt;div&gt;&lt;b&gt;&lt;br&gt;&lt;/b&gt;&lt;/div&gt;Function apps&lt;/b&gt;&lt;div&gt;Read files, Store data to Azure&amp;nbsp;&lt;/div&gt;" style="rounded=1;whiteSpace=wrap;html=1;fontSize=15;" parent="1" vertex="1">
<mxGeometry x="-60" y="225" width="180" height="212.5" as="geometry" />
</mxCell>
<mxCell id="SvIgPlwQUDWTWXCzjuk7-48" value="Document AI" style="sketch=0;html=1;verticalAlign=top;labelPosition=center;verticalLabelPosition=bottom;align=center;spacingTop=-6;fontSize=15;fontStyle=1;fontColor=#999999;shape=image;aspect=fixed;imageAspect=0;image=data:image/svg+xml,PHN2ZyB4bWxucz0iaHR0cDovL3d3dy53My5vcmcvMjAwMC9zdmciIGlkPSJzdmcyNDYzMyIgdmVyc2lvbj0iMS4xIiB2aWV3Qm94PSIwIDAgMjA4LjcxMzM2IDI1OC45NjYwOSIgaGVpZ2h0PSIyNTguOTY2MDltbSIgd2lkdGg9IjIwOC43MTMzNm1tIj4mI3hhOyAgJiN4YTsgIDxkZWZzIGlkPSJkZWZzMjQ2MzAiLz4mI3hhOyAgPGcgdHJhbnNmb3JtPSJ0cmFuc2xhdGUoLTMuMzk0NjI0OCwtMTcuODEwMjgyKSIgaWQ9ImxheWVyMSI+JiN4YTsgICAgPHBhdGggdHJhbnNmb3JtPSJzY2FsZSgwLjI2NDU4MzMzKSIgZD0ibSAxMTIuNDcwNyw2Ny4zMTQ0NTMgYyAtNTguMzI5NTUyLDAgLTk5LjY0MDYyMiw0MS4wMzc2NDcgLTk5LjY0MDYyMiwxMDYuODUxNTY3IHYgNzc0LjE4NzUgYyAwLDU2LjMxMzc4IDQzLjI2NjU5Niw5Ny43MzA0OCAxMDEuMjc3MzQyLDk3LjczMDQ4IEggNDEwLjA5OTYxIFYgOTQ3LjUwNTg2IEggMTA5LjM4MjgxIFYgMTYzLjIxODc1IGggMzAwLjcxNjggViA2Ny4zMTQ0NTMgWiBtIDQ3MS43MjA3MSwyOC43NzczNDQgYSA2OS44ODQ0ODksNjkuODg0NDg5IDAgMCAwIC02OS44ODQ3Nyw2OS44ODQ3NjMgNjkuODg0NDg5LDY5Ljg4NDQ4OSAwIDAgMCA0OS4wNjQ0NSw2Ni43MDExNyB2IDc2Ljg4ODY4IGMgMCwzMi4xNzM1NCAtMy4wMDI0OSw1NC4yMDgzNiAtOS4wMDU4Niw2NC4zNDc2NSAtNi4wMDMzNiwxMC4xMzkzIC0xNC4wMTI0MiwxNS4yOTY4OCAtNDIuMjM4MjgsMTUuMjk2ODggaCAtNDkuMTQyNTcgdiAzOS45OTQxNCBoIDQ5LjE0MjU3IGMgMzUuMzA1MSwwIDYyLjkxMzc2LC0xMS43MTI1MiA3Ni42NTIzNSwtMzQuOTE2MDIgMTMuNzM4NTgsLTIzLjIwMzU1IDE0LjU5Mzc1LC01MC45ODc2OCAxNC41OTM3NSwtODQuNzIyNjUgViAyMzMuMTM0NzcgQSA2OS44ODQ0ODksNjkuODg0NDg5IDAgMCAwIDY1NC4wNzQyMiwxNjUuOTc2NTYgNjkuODg0NDg5LDY5Ljg4NDQ4OSAwIDAgMCA1ODQuMTkxNDEsOTYuMDkxNzk3IFogTSAyMDkuMTA3NDIsMzU5Ljc5Njg4IHYgOTYuNjM2NzEgaCAyMDAuOTE3OTcgdiAtOTYuNjM2NzEgeiBtIDUyMi42Nzc3NCwyOC42OTMzNSBhIDY5Ljg4NDQ4OSw2OS44ODQ0ODkgMCAwIDAgLTY5Ljg4NDc3LDY5Ljg4NDc3IDY5Ljg4NDQ4OSw2OS44ODQ0ODkgMCAwIDAgNDQuNTMzMiw2NS4xMTkxNCBjIC0wLjgyMjcyLDI4LjAzMTA0IC04LjIxNjMsNDAuMDcxOTggLTIwLjgxODM2LDQ4LjQ3NjU2IC0xMy4zODU1Myw4LjkyNzE3IC0zNy43MTQ3NCwxMy4zOTg0NCAtNzEuMjc5MjksMTMuMzk4NDQgSCA0NjMuNjY0MDYgdiAzOS45OTQxNCBoIDE1MC42NzE4OCBjIDM2LjUyOTQzLDAgNjguMjkxOTIsLTMuMzI0MjMgOTMuNDY4NzUsLTIwLjExNTIzIDIzLjMyMzQ4LC0xNS41NTQ5NiAzNi42MzkxNywtNDIuOTc3MzEgMzguNDc0NjEsLTc4LjU0MTAyIEEgNjkuODg0NDg5LDY5Ljg4NDQ4OSAwIDAgMCA4MDEuNjY3OTcsNDU4LjM3NSA2OS44ODQ0ODksNjkuODg0NDg5IDAgMCAwIDczMS43ODUxNiwzODguNDkwMjMgWiBNIDIwOS4xMDc0Miw1NTYuNDgyNDIgdiA5Ni42MzY3MiBoIDIwMC45MTc5NyB2IC05Ni42MzY3MiB6IG0gMCwxOTYuNjg3NSB2IDk2LjYzNjcyIGggMjAwLjkxNzk3IHYgLTk2LjYzNjcyIHogbSAyNTQuOTc2NTYsMjcuNTQ2ODggdiAzOS45OTQxNCBoIDk4LjU5OTYxIGMgMzIuMzE0MjUsMCA1NS40NDQxMiwyLjUyNzk1IDY2LjIzMDQ3LDguMDAxOTUgNS4zOTMxNiwyLjczNzAyIDguMDg0ODgsNS4zNTUzMiAxMC41NDI5NywxMC4yMzI0MiAyLjQ1ODA5LDQuODc3MTQgNC40MDYyNSwxMi43Nzc2OCA0LjQwNjI1LDI1LjAzMTI1IHYgMTkuODE4MzYgYSA2OS44ODQ0ODksNjkuODg0NDg5IDAgMCAwIC00OS43MjI2Niw2Ni44OTY0OSA2OS44ODQ0ODksNjkuODg0NDg5IDAgMCAwIDY5Ljg4NDc3LDY5Ljg4NDc5IDY5Ljg4NDQ4OSw2OS44ODQ0ODkgMCAwIDAgNjkuODg0NzcsLTY5Ljg4NDc5IDY5Ljg4NDQ4OSw2OS44ODQ0ODkgMCAwIDAgLTUwLjA0NDkzLC02Ni45ODI0MyB2IC0xOS43MzI0MiBjIDAsLTE2LjM2ODgzIC0yLjQ2MjIsLTMwLjY4NTUgLTguNjg3NSwtNDMuMDM3MTEgLTYuMjI1MjYsLTEyLjM1MTYxIC0xNi40OTAxNywtMjEuOTczMDIgLTI4LjE2MjExLC0yNy44OTY0OCBDIDYyMy42NzE3NSw3ODEuMTk2MDggNTk2LjIxNjcsNzgwLjcxNjggNTYyLjY4MzU5LDc4MC43MTY4IFoiIHN0eWxlPSJjb2xvcjojMDAwMDAwO29wYWNpdHk6MTtmaWxsOiM1OTg2ZjI7ZmlsbC1vcGFjaXR5OjE7c3Ryb2tlLXdpZHRoOjM5Ljk5OTk7LWlua3NjYXBlLXN0cm9rZTpub25lIiBpZD0icGF0aDI0NzYyIi8+JiN4YTsgIDwvZz4mI3hhOzwvc3ZnPg==;" parent="1" vertex="1">
<mxGeometry x="533" y="664" width="34" height="42" as="geometry" />
</mxCell>
<mxCell id="SvIgPlwQUDWTWXCzjuk7-49" value="" style="image;aspect=fixed;html=1;points=[];align=center;fontSize=15;image=img/lib/azure2/ai_machine_learning/Azure_OpenAI.svg;" parent="1" vertex="1">
<mxGeometry x="1546" y="615.5" width="68" height="68" as="geometry" />
</mxCell>
<mxCell id="SvIgPlwQUDWTWXCzjuk7-52" value="" style="image;aspect=fixed;html=1;points=[];align=center;fontSize=15;image=img/lib/azure2/general/Storage_Container.svg;" parent="1" vertex="1">
<mxGeometry y="560" width="64" height="52" as="geometry" />
</mxCell>
<mxCell id="SvIgPlwQUDWTWXCzjuk7-53" value="" style="image;aspect=fixed;html=1;points=[];align=center;fontSize=15;image=img/lib/azure2/compute/Function_Apps.svg;" parent="1" vertex="1">
<mxGeometry x="-4" y="260" width="68" height="60" as="geometry" />
</mxCell>
<mxCell id="SvIgPlwQUDWTWXCzjuk7-54" value="" style="html=1;verticalLabelPosition=bottom;align=center;labelBackgroundColor=#ffffff;verticalAlign=top;strokeWidth=2;strokeColor=#0080F0;shadow=0;dashed=0;shape=mxgraph.ios7.icons.documents;fontSize=15;" parent="1" vertex="1">
<mxGeometry x="-428.25" y="235" width="26.5" height="39" as="geometry" />
</mxCell>
<mxCell id="SvIgPlwQUDWTWXCzjuk7-57" value="" style="image;aspect=fixed;html=1;points=[];align=center;fontSize=15;image=img/lib/azure2/app_services/Search_Services.svg;" parent="1" vertex="1">
<mxGeometry x="1959" y="619.94" width="68" height="49.120000000000005" as="geometry" />
</mxCell>
<mxCell id="SvIgPlwQUDWTWXCzjuk7-59" value="" style="image;aspect=fixed;html=1;points=[];align=center;fontSize=15;image=img/lib/azure2/ai_machine_learning/AI_Studio.svg;" parent="1" vertex="1">
<mxGeometry x="2280.5" y="416.5" width="64" height="68" as="geometry" />
</mxCell>
<mxCell id="0urHjBUWFSTuqGPctkFO-4" value="Data Flow Steps" style="shape=table;startSize=30;container=1;collapsible=0;childLayout=tableLayout;fixedRows=1;rowLines=0;fontStyle=1;strokeColor=default;fontSize=15;" parent="1" vertex="1">
<mxGeometry x="-437" y="790" width="760" height="379" as="geometry" />
</mxCell>
<mxCell id="0urHjBUWFSTuqGPctkFO-50" style="shape=tableRow;horizontal=0;startSize=0;swimlaneHead=0;swimlaneBody=0;top=0;left=0;bottom=0;right=0;collapsible=0;dropTarget=0;fillColor=none;points=[[0,0.5],[1,0.5]];portConstraint=eastwest;strokeColor=inherit;fontSize=15;" parent="0urHjBUWFSTuqGPctkFO-4" vertex="1">
<mxGeometry y="30" width="760" height="30" as="geometry" />
</mxCell>
<mxCell id="0urHjBUWFSTuqGPctkFO-51" style="shape=partialRectangle;html=1;whiteSpace=wrap;connectable=0;fillColor=none;top=0;left=0;bottom=0;right=0;overflow=hidden;pointerEvents=1;strokeColor=inherit;fontSize=15;" parent="0urHjBUWFSTuqGPctkFO-50" vertex="1">
<mxGeometry width="168" height="30" as="geometry">
<mxRectangle width="168" height="30" as="alternateBounds" />
</mxGeometry>
</mxCell>
<mxCell id="0urHjBUWFSTuqGPctkFO-52" style="shape=partialRectangle;html=1;whiteSpace=wrap;connectable=0;fillColor=none;top=0;left=0;bottom=0;right=0;align=left;spacingLeft=6;overflow=hidden;strokeColor=inherit;fontSize=15;" parent="0urHjBUWFSTuqGPctkFO-50" vertex="1">
<mxGeometry x="168" width="592" height="30" as="geometry">
<mxRectangle width="592" height="30" as="alternateBounds" />
</mxGeometry>
</mxCell>
<mxCell id="0urHjBUWFSTuqGPctkFO-5" value="" style="shape=tableRow;horizontal=0;startSize=0;swimlaneHead=0;swimlaneBody=0;top=0;left=0;bottom=0;right=0;collapsible=0;dropTarget=0;fillColor=none;points=[[0,0.5],[1,0.5]];portConstraint=eastwest;strokeColor=inherit;fontSize=15;" parent="0urHjBUWFSTuqGPctkFO-4" vertex="1">
<mxGeometry y="60" width="760" height="30" as="geometry" />
</mxCell>
<mxCell id="0urHjBUWFSTuqGPctkFO-6" value="1" style="shape=partialRectangle;html=1;whiteSpace=wrap;connectable=0;fillColor=none;top=0;left=0;bottom=0;right=0;overflow=hidden;pointerEvents=1;strokeColor=inherit;fontSize=15;" parent="0urHjBUWFSTuqGPctkFO-5" vertex="1">
<mxGeometry width="168" height="30" as="geometry">
<mxRectangle width="168" height="30" as="alternateBounds" />
</mxGeometry>
</mxCell>
<mxCell id="0urHjBUWFSTuqGPctkFO-7" value="Periodically get documents from Documentum&amp;nbsp;" style="shape=partialRectangle;html=1;whiteSpace=wrap;connectable=0;fillColor=none;top=0;left=0;bottom=0;right=0;align=left;spacingLeft=6;overflow=hidden;strokeColor=inherit;fontSize=15;" parent="0urHjBUWFSTuqGPctkFO-5" vertex="1">
<mxGeometry x="168" width="592" height="30" as="geometry">
<mxRectangle width="592" height="30" as="alternateBounds" />
</mxGeometry>
</mxCell>
<mxCell id="0urHjBUWFSTuqGPctkFO-8" value="" style="shape=tableRow;horizontal=0;startSize=0;swimlaneHead=0;swimlaneBody=0;top=0;left=0;bottom=0;right=0;collapsible=0;dropTarget=0;fillColor=none;points=[[0,0.5],[1,0.5]];portConstraint=eastwest;strokeColor=inherit;fontSize=15;" parent="0urHjBUWFSTuqGPctkFO-4" vertex="1">
<mxGeometry y="90" width="760" height="30" as="geometry" />
</mxCell>
<mxCell id="0urHjBUWFSTuqGPctkFO-9" value="2" style="shape=partialRectangle;html=1;whiteSpace=wrap;connectable=0;fillColor=none;top=0;left=0;bottom=0;right=0;overflow=hidden;strokeColor=inherit;fontSize=15;" parent="0urHjBUWFSTuqGPctkFO-8" vertex="1">
<mxGeometry width="168" height="30" as="geometry">
<mxRectangle width="168" height="30" as="alternateBounds" />
</mxGeometry>
</mxCell>
<mxCell id="0urHjBUWFSTuqGPctkFO-10" value="Storing Raw files from Documentum to ADLS" style="shape=partialRectangle;html=1;whiteSpace=wrap;connectable=0;fillColor=none;top=0;left=0;bottom=0;right=0;align=left;spacingLeft=6;overflow=hidden;strokeColor=inherit;fontSize=15;" parent="0urHjBUWFSTuqGPctkFO-8" vertex="1">
<mxGeometry x="168" width="592" height="30" as="geometry">
<mxRectangle width="592" height="30" as="alternateBounds" />
</mxGeometry>
</mxCell>
<mxCell id="0urHjBUWFSTuqGPctkFO-11" value="" style="shape=tableRow;horizontal=0;startSize=0;swimlaneHead=0;swimlaneBody=0;top=0;left=0;bottom=0;right=0;collapsible=0;dropTarget=0;fillColor=none;points=[[0,0.5],[1,0.5]];portConstraint=eastwest;strokeColor=inherit;fontSize=15;" parent="0urHjBUWFSTuqGPctkFO-4" vertex="1">
<mxGeometry y="120" width="760" height="30" as="geometry" />
</mxCell>
<mxCell id="0urHjBUWFSTuqGPctkFO-12" value="3" style="shape=partialRectangle;html=1;whiteSpace=wrap;connectable=0;fillColor=none;top=0;left=0;bottom=0;right=0;overflow=hidden;strokeColor=inherit;fontSize=15;" parent="0urHjBUWFSTuqGPctkFO-11" vertex="1">
<mxGeometry width="168" height="30" as="geometry">
<mxRectangle width="168" height="30" as="alternateBounds" />
</mxGeometry>
</mxCell>
<mxCell id="0urHjBUWFSTuqGPctkFO-13" value="Read Raw data from ADLS" style="shape=partialRectangle;html=1;whiteSpace=wrap;connectable=0;fillColor=none;top=0;left=0;bottom=0;right=0;align=left;spacingLeft=6;overflow=hidden;strokeColor=inherit;fontSize=15;" parent="0urHjBUWFSTuqGPctkFO-11" vertex="1">
<mxGeometry x="168" width="592" height="30" as="geometry">
<mxRectangle width="592" height="30" as="alternateBounds" />
</mxGeometry>
</mxCell>
<mxCell id="0urHjBUWFSTuqGPctkFO-17" style="shape=tableRow;horizontal=0;startSize=0;swimlaneHead=0;swimlaneBody=0;top=0;left=0;bottom=0;right=0;collapsible=0;dropTarget=0;fillColor=none;points=[[0,0.5],[1,0.5]];portConstraint=eastwest;strokeColor=inherit;fontSize=15;" parent="0urHjBUWFSTuqGPctkFO-4" vertex="1">
<mxGeometry y="150" width="760" height="30" as="geometry" />
</mxCell>
<mxCell id="0urHjBUWFSTuqGPctkFO-18" value="4" style="shape=partialRectangle;html=1;whiteSpace=wrap;connectable=0;fillColor=none;top=0;left=0;bottom=0;right=0;overflow=hidden;strokeColor=inherit;fontSize=15;" parent="0urHjBUWFSTuqGPctkFO-17" vertex="1">
<mxGeometry width="168" height="30" as="geometry">
<mxRectangle width="168" height="30" as="alternateBounds" />
</mxGeometry>
</mxCell>
<mxCell id="0urHjBUWFSTuqGPctkFO-19" value="Store raw data in a structured manner" style="shape=partialRectangle;html=1;whiteSpace=wrap;connectable=0;fillColor=none;top=0;left=0;bottom=0;right=0;align=left;spacingLeft=6;overflow=hidden;strokeColor=inherit;fontSize=15;" parent="0urHjBUWFSTuqGPctkFO-17" vertex="1">
<mxGeometry x="168" width="592" height="30" as="geometry">
<mxRectangle width="592" height="30" as="alternateBounds" />
</mxGeometry>
</mxCell>
<mxCell id="0urHjBUWFSTuqGPctkFO-20" style="shape=tableRow;horizontal=0;startSize=0;swimlaneHead=0;swimlaneBody=0;top=0;left=0;bottom=0;right=0;collapsible=0;dropTarget=0;fillColor=none;points=[[0,0.5],[1,0.5]];portConstraint=eastwest;strokeColor=inherit;fontSize=15;" parent="0urHjBUWFSTuqGPctkFO-4" vertex="1">
<mxGeometry y="180" width="760" height="30" as="geometry" />
</mxCell>
<mxCell id="0urHjBUWFSTuqGPctkFO-21" value="5" style="shape=partialRectangle;html=1;whiteSpace=wrap;connectable=0;fillColor=none;top=0;left=0;bottom=0;right=0;overflow=hidden;strokeColor=inherit;fontSize=15;" parent="0urHjBUWFSTuqGPctkFO-20" vertex="1">
<mxGeometry width="168" height="30" as="geometry">
<mxRectangle width="168" height="30" as="alternateBounds" />
</mxGeometry>
</mxCell>
<mxCell id="0urHjBUWFSTuqGPctkFO-22" value="Pull bronze data for processing" style="shape=partialRectangle;html=1;whiteSpace=wrap;connectable=0;fillColor=none;top=0;left=0;bottom=0;right=0;align=left;spacingLeft=6;overflow=hidden;strokeColor=inherit;fontSize=15;" parent="0urHjBUWFSTuqGPctkFO-20" vertex="1">
<mxGeometry x="168" width="592" height="30" as="geometry">
<mxRectangle width="592" height="30" as="alternateBounds" />
</mxGeometry>
</mxCell>
<mxCell id="0urHjBUWFSTuqGPctkFO-23" style="shape=tableRow;horizontal=0;startSize=0;swimlaneHead=0;swimlaneBody=0;top=0;left=0;bottom=0;right=0;collapsible=0;dropTarget=0;fillColor=none;points=[[0,0.5],[1,0.5]];portConstraint=eastwest;strokeColor=inherit;fontSize=15;" parent="0urHjBUWFSTuqGPctkFO-4" vertex="1">
<mxGeometry y="210" width="760" height="30" as="geometry" />
</mxCell>
<mxCell id="0urHjBUWFSTuqGPctkFO-24" value="6" style="shape=partialRectangle;html=1;whiteSpace=wrap;connectable=0;fillColor=none;top=0;left=0;bottom=0;right=0;overflow=hidden;strokeColor=inherit;fontSize=15;" parent="0urHjBUWFSTuqGPctkFO-23" vertex="1">
<mxGeometry width="168" height="30" as="geometry">
<mxRectangle width="168" height="30" as="alternateBounds" />
</mxGeometry>
</mxCell>
<mxCell id="0urHjBUWFSTuqGPctkFO-25" value="Create Json using Azure AI Document intelligence" style="shape=partialRectangle;html=1;whiteSpace=wrap;connectable=0;fillColor=none;top=0;left=0;bottom=0;right=0;align=left;spacingLeft=6;overflow=hidden;strokeColor=inherit;fontSize=15;" parent="0urHjBUWFSTuqGPctkFO-23" vertex="1">
<mxGeometry x="168" width="592" height="30" as="geometry">
<mxRectangle width="592" height="30" as="alternateBounds" />
</mxGeometry>
</mxCell>
<mxCell id="SegBclisTMHdR6WhwMs6-25" style="shape=tableRow;horizontal=0;startSize=0;swimlaneHead=0;swimlaneBody=0;top=0;left=0;bottom=0;right=0;collapsible=0;dropTarget=0;fillColor=none;points=[[0,0.5],[1,0.5]];portConstraint=eastwest;strokeColor=inherit;fontSize=15;" parent="0urHjBUWFSTuqGPctkFO-4" vertex="1">
<mxGeometry y="240" width="760" height="30" as="geometry" />
</mxCell>
<mxCell id="SegBclisTMHdR6WhwMs6-26" value="7" style="shape=partialRectangle;html=1;whiteSpace=wrap;connectable=0;fillColor=none;top=0;left=0;bottom=0;right=0;overflow=hidden;strokeColor=inherit;fontSize=15;" parent="SegBclisTMHdR6WhwMs6-25" vertex="1">
<mxGeometry width="168" height="30" as="geometry">
<mxRectangle width="168" height="30" as="alternateBounds" />
</mxGeometry>
</mxCell>
<mxCell id="SegBclisTMHdR6WhwMs6-27" value="Create Embedding" style="shape=partialRectangle;html=1;whiteSpace=wrap;connectable=0;fillColor=none;top=0;left=0;bottom=0;right=0;align=left;spacingLeft=6;overflow=hidden;strokeColor=inherit;fontSize=15;" parent="SegBclisTMHdR6WhwMs6-25" vertex="1">
<mxGeometry x="168" width="592" height="30" as="geometry">
<mxRectangle width="592" height="30" as="alternateBounds" />
</mxGeometry>
</mxCell>
<mxCell id="SegBclisTMHdR6WhwMs6-28" style="shape=tableRow;horizontal=0;startSize=0;swimlaneHead=0;swimlaneBody=0;top=0;left=0;bottom=0;right=0;collapsible=0;dropTarget=0;fillColor=none;points=[[0,0.5],[1,0.5]];portConstraint=eastwest;strokeColor=inherit;fontSize=15;" parent="0urHjBUWFSTuqGPctkFO-4" vertex="1">
<mxGeometry y="270" width="760" height="30" as="geometry" />
</mxCell>
<mxCell id="SegBclisTMHdR6WhwMs6-29" value="8" style="shape=partialRectangle;html=1;whiteSpace=wrap;connectable=0;fillColor=none;top=0;left=0;bottom=0;right=0;overflow=hidden;strokeColor=inherit;fontSize=15;" parent="SegBclisTMHdR6WhwMs6-28" vertex="1">
<mxGeometry width="168" height="30" as="geometry">
<mxRectangle width="168" height="30" as="alternateBounds" />
</mxGeometry>
</mxCell>
<mxCell id="SegBclisTMHdR6WhwMs6-30" value="Store Json files with Embedding" style="shape=partialRectangle;html=1;whiteSpace=wrap;connectable=0;fillColor=none;top=0;left=0;bottom=0;right=0;align=left;spacingLeft=6;overflow=hidden;strokeColor=inherit;fontSize=15;" parent="SegBclisTMHdR6WhwMs6-28" vertex="1">
<mxGeometry x="168" width="592" height="30" as="geometry">
<mxRectangle width="592" height="30" as="alternateBounds" />
</mxGeometry>
</mxCell>
<mxCell id="SegBclisTMHdR6WhwMs6-31" style="shape=tableRow;horizontal=0;startSize=0;swimlaneHead=0;swimlaneBody=0;top=0;left=0;bottom=0;right=0;collapsible=0;dropTarget=0;fillColor=none;points=[[0,0.5],[1,0.5]];portConstraint=eastwest;strokeColor=inherit;fontSize=15;" parent="0urHjBUWFSTuqGPctkFO-4" vertex="1">
<mxGeometry y="300" width="760" height="30" as="geometry" />
</mxCell>
<mxCell id="SegBclisTMHdR6WhwMs6-32" value="9" style="shape=partialRectangle;html=1;whiteSpace=wrap;connectable=0;fillColor=none;top=0;left=0;bottom=0;right=0;overflow=hidden;strokeColor=inherit;fontSize=15;" parent="SegBclisTMHdR6WhwMs6-31" vertex="1">
<mxGeometry width="168" height="30" as="geometry">
<mxRectangle width="168" height="30" as="alternateBounds" />
</mxGeometry>
</mxCell>
<mxCell id="SegBclisTMHdR6WhwMs6-33" value="Pull Embedding with Json files" style="shape=partialRectangle;html=1;whiteSpace=wrap;connectable=0;fillColor=none;top=0;left=0;bottom=0;right=0;align=left;spacingLeft=6;overflow=hidden;strokeColor=inherit;fontSize=15;" parent="SegBclisTMHdR6WhwMs6-31" vertex="1">
<mxGeometry x="168" width="592" height="30" as="geometry">
<mxRectangle width="592" height="30" as="alternateBounds" />
</mxGeometry>
</mxCell>
<mxCell id="SegBclisTMHdR6WhwMs6-34" style="shape=tableRow;horizontal=0;startSize=0;swimlaneHead=0;swimlaneBody=0;top=0;left=0;bottom=0;right=0;collapsible=0;dropTarget=0;fillColor=none;points=[[0,0.5],[1,0.5]];portConstraint=eastwest;strokeColor=inherit;fontSize=15;" parent="0urHjBUWFSTuqGPctkFO-4" vertex="1">
<mxGeometry y="330" width="760" height="30" as="geometry" />
</mxCell>
<mxCell id="SegBclisTMHdR6WhwMs6-35" value="10" style="shape=partialRectangle;html=1;whiteSpace=wrap;connectable=0;fillColor=none;top=0;left=0;bottom=0;right=0;overflow=hidden;strokeColor=inherit;fontSize=15;" parent="SegBclisTMHdR6WhwMs6-34" vertex="1">
<mxGeometry width="168" height="30" as="geometry">
<mxRectangle width="168" height="30" as="alternateBounds" />
</mxGeometry>
</mxCell>
<mxCell id="SegBclisTMHdR6WhwMs6-36" value="Store Embedding and json to AI search" style="shape=partialRectangle;html=1;whiteSpace=wrap;connectable=0;fillColor=none;top=0;left=0;bottom=0;right=0;align=left;spacingLeft=6;overflow=hidden;strokeColor=inherit;fontSize=15;" parent="SegBclisTMHdR6WhwMs6-34" vertex="1">
<mxGeometry x="168" width="592" height="30" as="geometry">
<mxRectangle width="592" height="30" as="alternateBounds" />
</mxGeometry>
</mxCell>
<mxCell id="dftj9NKV9Ri1o8yNs-0A-1" value="" style="sketch=0;outlineConnect=0;fontColor=#232F3E;gradientColor=none;fillColor=#01A88D;strokeColor=none;dashed=0;verticalLabelPosition=bottom;verticalAlign=top;align=center;html=1;fontSize=15;fontStyle=0;aspect=fixed;pointerEvents=1;shape=mxgraph.aws4.sagemaker_notebook;" parent="1" vertex="1">
<mxGeometry x="672.8400000000001" y="391.5" width="52.31" height="60" as="geometry" />
</mxCell>
<mxCell id="dftj9NKV9Ri1o8yNs-0A-5" value="&lt;div&gt;&lt;br&gt;&lt;/div&gt;&lt;div&gt;&lt;br&gt;&lt;/div&gt;&lt;div&gt;&lt;br&gt;&lt;/div&gt;&lt;div&gt;DAG Silver Layer&lt;/div&gt;&lt;div&gt;(JSON Latest)&lt;/div&gt;" style="rounded=1;whiteSpace=wrap;html=1;fontSize=15;" parent="1" vertex="1">
<mxGeometry x="1510" y="343.25" width="200" height="135" as="geometry" />
</mxCell>
<mxCell id="SegBclisTMHdR6WhwMs6-6" value="&lt;font style=&quot;font-size: 30px;&quot;&gt;&lt;b&gt;6&lt;/b&gt;&lt;/font&gt;" style="edgeStyle=orthogonalEdgeStyle;rounded=0;orthogonalLoop=1;jettySize=auto;html=1;entryX=1;entryY=0.5;entryDx=0;entryDy=0;fontSize=15;" parent="1" source="dftj9NKV9Ri1o8yNs-0A-8" target="SegBclisTMHdR6WhwMs6-1" edge="1">
<mxGeometry relative="1" as="geometry" />
</mxCell>
<mxCell id="SegBclisTMHdR6WhwMs6-8" value="&lt;b&gt;&lt;font style=&quot;font-size: 30px;&quot;&gt;7&lt;/font&gt;&lt;/b&gt;" style="edgeStyle=orthogonalEdgeStyle;rounded=0;orthogonalLoop=1;jettySize=auto;html=1;fontSize=15;" parent="1" source="dftj9NKV9Ri1o8yNs-0A-8" target="dftj9NKV9Ri1o8yNs-0A-5" edge="1">
<mxGeometry relative="1" as="geometry" />
</mxCell>
<mxCell id="dftj9NKV9Ri1o8yNs-0A-8" value="&lt;div&gt;&lt;b&gt;&lt;br&gt;&lt;/b&gt;&lt;/div&gt;&lt;b&gt;&lt;div&gt;&lt;b&gt;&lt;br&gt;&lt;/b&gt;&lt;/div&gt;&lt;div&gt;&lt;b&gt;&lt;br&gt;&lt;/b&gt;&lt;/div&gt;&lt;/b&gt;&lt;span style=&quot;background-color: transparent; color: light-dark(rgb(0, 0, 0), rgb(255, 255, 255));&quot;&gt;&lt;div&gt;&lt;span style=&quot;background-color: transparent; color: light-dark(rgb(0, 0, 0), rgb(255, 255, 255));&quot;&gt;&lt;b&gt;Synapse Notebook&lt;/b&gt;&lt;/span&gt;&lt;/div&gt;Read JSON, identity the latest JSON and write to Silver&lt;/span&gt;" style="rounded=1;whiteSpace=wrap;html=1;fontSize=15;" parent="1" vertex="1">
<mxGeometry x="1183" y="304.5" width="180" height="212.5" as="geometry" />
</mxCell>
<mxCell id="dftj9NKV9Ri1o8yNs-0A-9" value="" style="image;aspect=fixed;html=1;points=[];align=center;fontSize=15;image=img/lib/azure2/general/Storage_Container.svg;" parent="1" vertex="1">
<mxGeometry x="1578" y="362.75" width="64" height="52" as="geometry" />
</mxCell>
<mxCell id="dftj9NKV9Ri1o8yNs-0A-11" value="" style="sketch=0;outlineConnect=0;fontColor=#232F3E;gradientColor=none;fillColor=#01A88D;strokeColor=none;dashed=0;verticalLabelPosition=bottom;verticalAlign=top;align=center;html=1;fontSize=15;fontStyle=0;aspect=fixed;pointerEvents=1;shape=mxgraph.aws4.sagemaker_notebook;" parent="1" vertex="1">
<mxGeometry x="1246.8400000000001" y="329.5" width="52.31" height="60" as="geometry" />
</mxCell>
<mxCell id="dftj9NKV9Ri1o8yNs-0A-16" value="" style="image;aspect=fixed;html=1;points=[];align=center;fontSize=15;image=img/lib/azure2/analytics/Azure_Synapse_Analytics.svg;" parent="1" vertex="1">
<mxGeometry x="1863" y="183.5" width="95.65" height="110" as="geometry" />
</mxCell>
<mxCell id="dftj9NKV9Ri1o8yNs-0A-18" value="&lt;font&gt;&lt;b&gt;Incremental Load&lt;/b&gt;&lt;/font&gt;" style="text;html=1;align=center;verticalAlign=middle;whiteSpace=wrap;rounded=0;fontSize=15;" parent="1" vertex="1">
<mxGeometry x="-129" y="120" width="348" height="30" as="geometry" />
</mxCell>
<mxCell id="dftj9NKV9Ri1o8yNs-0A-19" value="&lt;font&gt;&lt;b&gt;Data Ingestion Framework&lt;/b&gt;&lt;/font&gt;" style="text;html=1;align=center;verticalAlign=middle;whiteSpace=wrap;rounded=0;fontSize=15;" parent="1" vertex="1">
<mxGeometry x="-118" y="195" width="348" height="30" as="geometry" />
</mxCell>
<mxCell id="dftj9NKV9Ri1o8yNs-0A-54" value="" style="image;aspect=fixed;html=1;points=[];align=center;fontSize=15;image=img/lib/azure2/analytics/Azure_Synapse_Analytics.svg;" parent="1" vertex="1">
<mxGeometry x="651.1699999999997" y="235" width="95.65" height="110" as="geometry" />
</mxCell>
<mxCell id="SegBclisTMHdR6WhwMs6-1" value="&lt;div&gt;&lt;br&gt;&lt;/div&gt;&lt;div&gt;&lt;br&gt;&lt;/div&gt;&lt;div&gt;&lt;br&gt;&lt;/div&gt;&lt;div&gt;DAG Bronze Layer&lt;/div&gt;&lt;div&gt;(JSON)&lt;/div&gt;" style="rounded=1;whiteSpace=wrap;html=1;fontSize=15;" parent="1" vertex="1">
<mxGeometry x="800" y="630" width="200" height="135" as="geometry" />
</mxCell>
<mxCell id="dftj9NKV9Ri1o8yNs-0A-51" value="" style="image;aspect=fixed;html=1;points=[];align=center;fontSize=15;image=img/lib/azure2/general/Storage_Container.svg;" parent="1" vertex="1">
<mxGeometry x="868" y="653.5" width="64" height="52" as="geometry" />
</mxCell>
<mxCell id="SegBclisTMHdR6WhwMs6-41" value="&lt;font&gt;&lt;b&gt;Data Access Gateway&lt;/b&gt;&lt;/font&gt;" style="text;html=1;align=center;verticalAlign=middle;whiteSpace=wrap;rounded=0;fontSize=15;" parent="1" vertex="1">
<mxGeometry x="520" y="183.5" width="351" height="65" as="geometry" />
</mxCell>
<mxCell id="SegBclisTMHdR6WhwMs6-42" value="&lt;font&gt;&lt;b&gt;Data Access Gateway&lt;/b&gt;&lt;/font&gt;" style="text;html=1;align=center;verticalAlign=middle;whiteSpace=wrap;rounded=0;fontSize=15;" parent="1" vertex="1">
<mxGeometry x="1420" y="183.5" width="351" height="65" as="geometry" />
</mxCell>
<mxCell id="SegBclisTMHdR6WhwMs6-47" value="&lt;font&gt;EDMS&lt;/font&gt;" style="rounded=0;whiteSpace=wrap;html=1;fontSize=15;" parent="1" vertex="1">
<mxGeometry x="-475" y="362.75" width="120" height="60" as="geometry" />
</mxCell>
<mxCell id="SegBclisTMHdR6WhwMs6-60" value="&lt;font style=&quot;font-size: 30px;&quot;&gt;&lt;b&gt;8&lt;/b&gt;&lt;/font&gt;" style="edgeStyle=orthogonalEdgeStyle;rounded=0;orthogonalLoop=1;jettySize=auto;html=1;entryX=1;entryY=0.5;entryDx=0;entryDy=0;fontSize=15;" parent="1" source="SegBclisTMHdR6WhwMs6-57" target="dftj9NKV9Ri1o8yNs-0A-5" edge="1">
<mxGeometry relative="1" as="geometry" />
</mxCell>
<mxCell id="SegBclisTMHdR6WhwMs6-62" value="&lt;font style=&quot;font-size: 30px;&quot;&gt;&lt;b&gt;9&lt;/b&gt;&lt;/font&gt;" style="edgeStyle=orthogonalEdgeStyle;rounded=0;orthogonalLoop=1;jettySize=auto;html=1;fontSize=15;" parent="1" source="SegBclisTMHdR6WhwMs6-57" target="SvIgPlwQUDWTWXCzjuk7-5" edge="1">
<mxGeometry relative="1" as="geometry">
<Array as="points">
<mxPoint x="1960" y="560" />
<mxPoint x="1580" y="560" />
</Array>
</mxGeometry>
</mxCell>
<mxCell id="SegBclisTMHdR6WhwMs6-57" value="&lt;div&gt;&lt;b&gt;&lt;br&gt;&lt;/b&gt;&lt;/div&gt;&lt;b&gt;&lt;div&gt;&lt;b&gt;&lt;br&gt;&lt;/b&gt;&lt;/div&gt;&lt;div&gt;&lt;b&gt;&lt;br&gt;&lt;/b&gt;&lt;/div&gt;&lt;/b&gt;&lt;span style=&quot;background-color: transparent; color: light-dark(rgb(0, 0, 0), rgb(255, 255, 255));&quot;&gt;&lt;div&gt;&lt;span style=&quot;background-color: transparent; color: light-dark(rgb(0, 0, 0), rgb(255, 255, 255));&quot;&gt;&lt;b&gt;Synapse Notebook&lt;/b&gt;&lt;/span&gt;&lt;/div&gt;Read latest JSON, create embedding, and write to AI Search&lt;/span&gt;" style="rounded=1;whiteSpace=wrap;html=1;fontSize=15;" parent="1" vertex="1">
<mxGeometry x="1870" y="304.5" width="180" height="212.5" as="geometry" />
</mxCell>
<mxCell id="SegBclisTMHdR6WhwMs6-58" value="" style="sketch=0;outlineConnect=0;fontColor=#232F3E;gradientColor=none;fillColor=#01A88D;strokeColor=none;dashed=0;verticalLabelPosition=bottom;verticalAlign=top;align=center;html=1;fontSize=15;fontStyle=0;aspect=fixed;pointerEvents=1;shape=mxgraph.aws4.sagemaker_notebook;" parent="1" vertex="1">
<mxGeometry x="1933.8400000000001" y="329.5" width="52.31" height="60" as="geometry" />
</mxCell>
<mxCell id="SegBclisTMHdR6WhwMs6-64" value="&lt;font&gt;MetaData Store&lt;/font&gt;" style="image;aspect=fixed;html=1;points=[];align=center;fontSize=15;image=img/lib/azure2/databases/SQL_Database.svg;" parent="1" vertex="1">
<mxGeometry x="132" y="439.5" width="48" height="64" as="geometry" />
</mxCell>
<mxCell id="vwJt1XzAx9xmRimYOtov-1" value="&lt;font&gt;MetaData Store&lt;/font&gt;" style="image;aspect=fixed;html=1;points=[];align=center;fontSize=15;image=img/lib/azure2/databases/SQL_Database.svg;" parent="1" vertex="1">
<mxGeometry x="410" y="293.5" width="48" height="64" as="geometry" />
</mxCell>
<mxCell id="zm7h74eJ30YAKv2ic-8Q-3" style="edgeStyle=orthogonalEdgeStyle;rounded=0;orthogonalLoop=1;jettySize=auto;html=1;entryX=0;entryY=0.5;entryDx=0;entryDy=0;" parent="1" source="zm7h74eJ30YAKv2ic-8Q-1" target="SvIgPlwQUDWTWXCzjuk7-40" edge="1">
<mxGeometry relative="1" as="geometry" />
</mxCell>
<mxCell id="zm7h74eJ30YAKv2ic-8Q-1" value="&lt;div&gt;&lt;b&gt;&lt;br&gt;&lt;/b&gt;&lt;/div&gt;&lt;div&gt;&lt;b&gt;&lt;br&gt;&lt;/b&gt;&lt;/div&gt;&lt;div&gt;&lt;b&gt;&lt;br&gt;&lt;/b&gt;&lt;/div&gt;&lt;div&gt;&lt;b&gt;&lt;br&gt;&lt;/b&gt;&lt;/div&gt;&lt;div&gt;&lt;b&gt;AS9&lt;/b&gt;&lt;/div&gt;" style="rounded=1;whiteSpace=wrap;html=1;fontSize=15;" parent="1" vertex="1">
<mxGeometry x="-510" y="479.5" width="190" height="125" as="geometry" />
</mxCell>
<mxCell id="zm7h74eJ30YAKv2ic-8Q-2" value="" style="image;aspect=fixed;perimeter=ellipsePerimeter;html=1;align=center;shadow=0;dashed=0;spacingTop=3;image=img/lib/active_directory/database.svg;" parent="1" vertex="1">
<mxGeometry x="-437" y="517" width="50" height="37" as="geometry" />
</mxCell>
</root>
</mxGraphModel>
</diagram>
</mxfile>

 

 